# xmcd CD database file
#
# Track frame offsets:
#	150
#	6471
#	34159
#	58405
#	79063
#	104336
#	127939
#	148387
#	168103
#	196986
#	220007
#
# Disc length: 3176 seconds
#
# Revision: 0
# Processed by: cddbd v1.5.2PL0 Copyright (c) Steve Scherf et al.
# Submitted via: CDex 1.51
#
DISCID=9c0c660b
DTITLE=Cedric Napoleon - Yesterday Today
DYEAR=1900
DGENRE=Jazz
TTITLE0=Intro
TTITLE1=Yesterday 
TTITLE2=Rock Steady
TTITLE3=Golden Lady
TTITLE4=Ordinary People
TTITLE5=Stella By Starlight
TTITLE6=My One And Only Love
TTITLE7=Happy
TTITLE8=Bridge Over Troubled Waters
TTITLE9=Just The Two Of Us
TTITLE10=Cedric's Groove
EXTD=
EXTT0=
EXTT1=
EXTT2=
EXTT3=
EXTT4=
EXTT5=
EXTT6=
EXTT7=
EXTT8=
EXTT9=
EXTT10=
PLAYORDER=
